<?xml version="1.0" encoding="utf-8"?><!-- Generated by IcoMoon.io --><!DOCTYPE svg PUBLIC "-//W3C//DTD SVG 1.1//EN" "http://www.w3.org/Graphics/SVG/1.1/DTD/svg11.dtd"><svg version="1.1" xmlns="http://www.w3.org/2000/svg" xmlns:xlink="http://www.w3.org/1999/xlink" width="16" height="16" viewBox="0 0 16 16" data-tags="locked,protected,secure,encrypted"><g fill="#aeaeae" transform="scale(0.015625 0.015625)"><path d="M544 512h-64c-53.056 0-96 43.008-96 96s42.944 96 96 96h-32v64h128v-64h-32c52.992 0 96-43.008 96-96s-43.008-96-96-96zM896 256h-70.464c-29.632-146.048-158.72-256-313.536-256s-283.904 109.952-313.536 256h-70.464c-70.656 0-128 57.344-128 128v512c0 70.656 57.344 128 128 128h768c70.656 0 128-57.344 128-128v-512c0-70.656-57.344-128-128-128zM512 128c83.456 0 153.792 53.568 180.224 128h-360.448c26.432-74.432 96.768-128 180.224-128zM896 832c0 35.392-28.608 64-64 64h-640c-35.328 0-64-28.608-64-64v-384c0-35.392 28.672-64 64-64h640c35.392 0 64 28.608 64 64v384z" /></g></svg>