<?xml version="1.0" encoding="utf-8"?><!-- Generated by IcoMoon.io --><!DOCTYPE svg PUBLIC "-//W3C//DTD SVG 1.1//EN" "http://www.w3.org/Graphics/SVG/1.1/DTD/svg11.dtd"><svg version="1.1" xmlns="http://www.w3.org/2000/svg" xmlns:xlink="http://www.w3.org/1999/xlink" width="20" height="20" viewBox="0 0 20 20" data-tags="wallet"><g fill="#aeaeae" transform="scale(0.01953125 0.01953125)"><path d="M819.2 307.2h-640v-25.6l563.2-45.056v45.056h76.8v-76.8c0-56.32-45.619-95.846-101.325-87.91l-514.099 73.421c-55.757 7.987-101.376 60.57-101.376 116.89v512c0 56.525 45.824 102.4 102.4 102.4h614.4c56.525 0 102.4-45.875 102.4-102.4v-409.6c0-56.525-45.875-102.4-102.4-102.4zM742.4 665.907c-42.394 0-76.8-34.406-76.8-76.8s34.406-76.8 76.8-76.8 76.8 34.406 76.8 76.8-34.406 76.8-76.8 76.8z" /></g></svg>